<?xml version="1.0" encoding="UTF-8" standalone="no"?><svg xmlns="http://www.w3.org/2000/svg" xmlns:xlink="http://www.w3.org/1999/xlink" clip-rule="evenodd" stroke-miterlimit="10" viewBox="0 0 1024 768"><desc>SVG generated by Keynote</desc><defs></defs><g transform="matrix(1.00, 0.00, -0.00, -1.00, 0.0, 768.0)"><path d="M 0.0 768.0 L 1024.0 768.0 L 1024.0 0.0 L 0.0 0.0 Z M 0.0 768.0 " fill="#FEFFFF"></path><text xml:space="preserve" font-family="Helvetica-Bold,Helvetica" font-weight="bold" font-size="62.7" fill="#C82505" transform="matrix(1.00, 0.00, -0.00, -1.00, 76.8, 546.2)">C</text><text xml:space="preserve" font-family="Helvetica-Bold,Helvetica" font-weight="bold" font-size="62.7" fill="#C82505" transform="matrix(1.00, 0.00, -0.00, -1.00, 122.1, 546.2)">o</text><text xml:space="preserve" font-family="Helvetica-Bold,Helvetica" font-weight="bold" font-size="62.7" fill="#C82505" transform="matrix(1.00, 0.00, -0.00, -1.00, 160.4, 546.2)">d</text><text xml:space="preserve" font-family="Helvetica-Bold,Helvetica" font-weight="bold" font-size="62.7" fill="#C82505" transform="matrix(1.00, 0.00, -0.00, -1.00, 198.7, 546.2)">e</text><text xml:space="preserve" font-family="Helvetica-Bold,Helvetica" font-weight="bold" font-size="62.7" fill="#C82505" transform="matrix(1.00, 0.00, -0.00, -1.00, 233.6, 546.2)"> </text><text xml:space="preserve" font-family="Helvetica-Bold,Helvetica" font-weight="bold" font-size="62.7" fill="#C82505" transform="matrix(1.00, 0.00, -0.00, -1.00, 251.0, 546.2)">f</text><text xml:space="preserve" font-family="Helvetica-Bold,Helvetica" font-weight="bold" font-size="62.7" fill="#C82505" transform="matrix(1.00, 0.00, -0.00, -1.00, 271.9, 546.2)">o</text><text xml:space="preserve" font-family="Helvetica-Bold,Helvetica" font-weight="bold" font-size="62.7" fill="#C82505" transform="matrix(1.00, 0.00, -0.00, -1.00, 310.2, 546.2)">r</text><text xml:space="preserve" font-family="Helvetica-Bold,Helvetica" font-weight="bold" font-size="62.7" fill="#C82505" transform="matrix(1.00, 0.00, -0.00, -1.00, 334.6, 546.2)"> </text><text xml:space="preserve" font-family="Helvetica-Bold,Helvetica" font-weight="bold" font-size="62.7" fill="#C82505" transform="matrix(1.00, 0.00, -0.00, -1.00, 349.7, 546.2)">A</text><text xml:space="preserve" font-family="Helvetica-Bold,Helvetica" font-weight="bold" font-size="62.7" fill="#C82505" transform="matrix(1.00, 0.00, -0.00, -1.00, 395.0, 546.2)">m</text><text xml:space="preserve" font-family="Helvetica-Bold,Helvetica" font-weight="bold" font-size="62.7" fill="#C82505" transform="matrix(1.00, 0.00, -0.00, -1.00, 450.8, 546.2)">e</text><text xml:space="preserve" font-family="Helvetica-Bold,Helvetica" font-weight="bold" font-size="62.7" fill="#C82505" transform="matrix(1.00, 0.00, -0.00, -1.00, 485.7, 546.2)">r</text><text xml:space="preserve" font-family="Helvetica-Bold,Helvetica" font-weight="bold" font-size="62.7" fill="#C82505" transform="matrix(1.00, 0.00, -0.00, -1.00, 510.1, 546.2)">i</text><text xml:space="preserve" font-family="Helvetica-Bold,Helvetica" font-weight="bold" font-size="62.7" fill="#C82505" transform="matrix(1.00, 0.00, -0.00, -1.00, 527.6, 546.2)">c</text><text xml:space="preserve" font-family="Helvetica-Bold,Helvetica" font-weight="bold" font-size="62.7" fill="#C82505" transform="matrix(1.00, 0.00, -0.00, -1.00, 562.4, 546.2)">a</text><text xml:space="preserve" font-family="Helvetica-Bold,Helvetica" font-weight="bold" font-size="62.7" fill="#52575F" transform="matrix(1.00, 0.00, -0.00, -1.00, 597.3, 546.2)"> </text><text xml:space="preserve" font-family="Helvetica-Bold,Helvetica" font-weight="bold" font-size="62.7" fill="#919191" transform="matrix(1.00, 0.00, -0.00, -1.00, 614.7, 546.2)">i</text><text xml:space="preserve" font-family="Helvetica-Bold,Helvetica" font-weight="bold" font-size="62.7" fill="#919191" transform="matrix(1.00, 0.00, -0.00, -1.00, 632.1, 546.2)">s</text><text xml:space="preserve" font-family="Helvetica-Bold,Helvetica" font-weight="bold" font-size="62.7" fill="#919191" transform="matrix(1.00, 0.00, -0.00, -1.00, 667.0, 546.2)"> </text><text xml:space="preserve" font-family="Helvetica-Bold,Helvetica" font-weight="bold" font-size="62.7" fill="#919191" transform="matrix(1.00, 0.00, -0.00, -1.00, 684.4, 546.2)">a</text><text xml:space="preserve" font-family="Helvetica-Bold,Helvetica" font-weight="bold" font-size="62.7" fill="#919191" transform="matrix(1.00, 0.00, -0.00, -1.00, 719.3, 546.2)"> </text><text xml:space="preserve" font-family="Helvetica-Bold,Helvetica" font-weight="bold" font-size="62.7" fill="#919191" transform="matrix(1.00, 0.00, -0.00, -1.00, 76.8, 472.2)">n</text><text xml:space="preserve" font-family="Helvetica-Bold,Helvetica" font-weight="bold" font-size="62.7" fill="#919191" transform="matrix(1.00, 0.00, -0.00, -1.00, 115.1, 472.2)">o</text><text xml:space="preserve" font-family="Helvetica-Bold,Helvetica" font-weight="bold" font-size="62.7" fill="#919191" transform="matrix(1.00, 0.00, -0.00, -1.00, 153.4, 472.2)">n</text><text xml:space="preserve" font-family="Helvetica-Bold,Helvetica" font-weight="bold" font-size="62.7" fill="#919191" transform="matrix(1.00, 0.00, -0.00, -1.00, 191.7, 472.2)">p</text><text xml:space="preserve" font-family="Helvetica-Bold,Helvetica" font-weight="bold" font-size="62.7" fill="#919191" transform="matrix(1.00, 0.00, -0.00, -1.00, 230.0, 472.2)">r</text><text xml:space="preserve" font-family="Helvetica-Bold,Helvetica" font-weight="bold" font-size="62.7" fill="#919191" transform="matrix(1.00, 0.00, -0.00, -1.00, 254.4, 472.2)">o</text><text xml:space="preserve" font-family="Helvetica-Bold,Helvetica" font-weight="bold" font-size="62.7" fill="#919191" transform="matrix(1.00, 0.00, -0.00, -1.00, 292.7, 472.2)">ï¬</text><text xml:space="preserve" font-family="Helvetica-Bold,Helvetica" font-weight="bold" font-size="62.7" fill="#919191" transform="matrix(1.00, 0.00, -0.00, -1.00, 331.0, 472.2)">t</text><text xml:space="preserve" font-family="Helvetica-Bold,Helvetica" font-weight="bold" font-size="62.7" fill="#919191" transform="matrix(1.00, 0.00, -0.00, -1.00, 351.9, 472.2)"> </text><text xml:space="preserve" font-family="Helvetica-Bold,Helvetica" font-weight="bold" font-size="62.7" fill="#919191" transform="matrix(1.00, 0.00, -0.00, -1.00, 369.3, 472.2)">t</text><text xml:space="preserve" font-family="Helvetica-Bold,Helvetica" font-weight="bold" font-size="62.7" fill="#919191" transform="matrix(1.00, 0.00, -0.00, -1.00, 390.2, 472.2)">h</text><text xml:space="preserve" font-family="Helvetica-Bold,Helvetica" font-weight="bold" font-size="62.7" fill="#919191" transform="matrix(1.00, 0.00, -0.00, -1.00, 428.5, 472.2)">a</text><text xml:space="preserve" font-family="Helvetica-Bold,Helvetica" font-weight="bold" font-size="62.7" fill="#919191" transform="matrix(1.00, 0.00, -0.00, -1.00, 463.4, 472.2)">t</text><text xml:space="preserve" font-family="Helvetica-Bold,Helvetica" font-weight="bold" font-size="62.7" fill="#919191" transform="matrix(1.00, 0.00, -0.00, -1.00, 484.3, 472.2)"> </text><text xml:space="preserve" font-family="Helvetica-Bold,Helvetica" font-weight="bold" font-size="62.7" fill="#919191" transform="matrix(1.00, 0.00, -0.00, -1.00, 501.7, 472.2)">p</text><text xml:space="preserve" font-family="Helvetica-Bold,Helvetica" font-weight="bold" font-size="62.7" fill="#919191" transform="matrix(1.00, 0.00, -0.00, -1.00, 540.0, 472.2)">a</text><text xml:space="preserve" font-family="Helvetica-Bold,Helvetica" font-weight="bold" font-size="62.7" fill="#919191" transform="matrix(1.00, 0.00, -0.00, -1.00, 574.9, 472.2)">r</text><text xml:space="preserve" font-family="Helvetica-Bold,Helvetica" font-weight="bold" font-size="62.7" fill="#919191" transform="matrix(1.00, 0.00, -0.00, -1.00, 599.3, 472.2)">t</text><text xml:space="preserve" font-family="Helvetica-Bold,Helvetica" font-weight="bold" font-size="62.7" fill="#919191" transform="matrix(1.00, 0.00, -0.00, -1.00, 620.2, 472.2)">n</text><text xml:space="preserve" font-family="Helvetica-Bold,Helvetica" font-weight="bold" font-size="62.7" fill="#919191" transform="matrix(1.00, 0.00, -0.00, -1.00, 658.5, 472.2)">e</text><text xml:space="preserve" font-family="Helvetica-Bold,Helvetica" font-weight="bold" font-size="62.7" fill="#919191" transform="matrix(1.00, 0.00, -0.00, -1.00, 693.4, 472.2)">r</text><text xml:space="preserve" font-family="Helvetica-Bold,Helvetica" font-weight="bold" font-size="62.7" fill="#919191" transform="matrix(1.00, 0.00, -0.00, -1.00, 717.8, 472.2)">s</text><text xml:space="preserve" font-family="Helvetica-Bold,Helvetica" font-weight="bold" font-size="62.7" fill="#919191" transform="matrix(1.00, 0.00, -0.00, -1.00, 752.7, 472.2)"> </text><text xml:space="preserve" font-family="Helvetica-Bold,Helvetica" font-weight="bold" font-size="62.7" fill="#919191" transform="matrix(1.00, 0.00, -0.00, -1.00, 770.1, 472.2)">w</text><text xml:space="preserve" font-family="Helvetica-Bold,Helvetica" font-weight="bold" font-size="62.7" fill="#919191" transform="matrix(1.00, 0.00, -0.00, -1.00, 818.9, 472.2)">i</text><text xml:space="preserve" font-family="Helvetica-Bold,Helvetica" font-weight="bold" font-size="62.7" fill="#919191" transform="matrix(1.00, 0.00, -0.00, -1.00, 836.3, 472.2)">t</text><text xml:space="preserve" font-family="Helvetica-Bold,Helvetica" font-weight="bold" font-size="62.7" fill="#919191" transform="matrix(1.00, 0.00, -0.00, -1.00, 857.2, 472.2)">h</text><text xml:space="preserve" font-family="Helvetica-Bold,Helvetica" font-weight="bold" font-size="62.7" fill="#919191" transform="matrix(1.00, 0.00, -0.00, -1.00, 895.5, 472.2)"> </text><text xml:space="preserve" font-family="Helvetica-Bold,Helvetica" font-weight="bold" font-size="62.7" fill="#919191" transform="matrix(1.00, 0.00, -0.00, -1.00, 76.8, 398.2)">l</text><text xml:space="preserve" font-family="Helvetica-Bold,Helvetica" font-weight="bold" font-size="62.7" fill="#919191" transform="matrix(1.00, 0.00, -0.00, -1.00, 94.2, 398.2)">o</text><text xml:space="preserve" font-family="Helvetica-Bold,Helvetica" font-weight="bold" font-size="62.7" fill="#919191" transform="matrix(1.00, 0.00, -0.00, -1.00, 132.5, 398.2)">c</text><text xml:space="preserve" font-family="Helvetica-Bold,Helvetica" font-weight="bold" font-size="62.7" fill="#919191" transform="matrix(1.00, 0.00, -0.00, -1.00, 167.4, 398.2)">a</text><text xml:space="preserve" font-family="Helvetica-Bold,Helvetica" font-weight="bold" font-size="62.7" fill="#919191" transform="matrix(1.00, 0.00, -0.00, -1.00, 202.3, 398.2)">l</text><text xml:space="preserve" font-family="Helvetica-Bold,Helvetica" font-weight="bold" font-size="62.7" fill="#919191" transform="matrix(1.00, 0.00, -0.00, -1.00, 219.7, 398.2)"> </text><text xml:space="preserve" font-family="Helvetica-Bold,Helvetica" font-weight="bold" font-size="62.7" fill="#919191" transform="matrix(1.00, 0.00, -0.00, -1.00, 237.1, 398.2)">g</text><text xml:space="preserve" font-family="Helvetica-Bold,Helvetica" font-weight="bold" font-size="62.7" fill="#919191" transform="matrix(1.00, 0.00, -0.00, -1.00, 275.4, 398.2)">o</text><text xml:space="preserve" font-family="Helvetica-Bold,Helvetica" font-weight="bold" font-size="62.7" fill="#919191" transform="matrix(1.00, 0.00, -0.00, -1.00, 313.7, 398.2)">v</text><text xml:space="preserve" font-family="Helvetica-Bold,Helvetica" font-weight="bold" font-size="62.7" fill="#919191" transform="matrix(1.00, 0.00, -0.00, -1.00, 348.6, 398.2)">e</text><text xml:space="preserve" font-family="Helvetica-Bold,Helvetica" font-weight="bold" font-size="62.7" fill="#919191" transform="matrix(1.00, 0.00, -0.00, -1.00, 383.5, 398.2)">r</text><text xml:space="preserve" font-family="Helvetica-Bold,Helvetica" font-weight="bold" font-size="62.7" fill="#919191" transform="matrix(1.00, 0.00, -0.00, -1.00, 407.9, 398.2)">n</text><text xml:space="preserve" font-family="Helvetica-Bold,Helvetica" font-weight="bold" font-size="62.7" fill="#919191" transform="matrix(1.00, 0.00, -0.00, -1.00, 446.2, 398.2)">m</text><text xml:space="preserve" font-family="Helvetica-Bold,Helvetica" font-weight="bold" font-size="62.7" fill="#919191" transform="matrix(1.00, 0.00, -0.00, -1.00, 502.0, 398.2)">e</text><text xml:space="preserve" font-family="Helvetica-Bold,Helvetica" font-weight="bold" font-size="62.7" fill="#919191" transform="matrix(1.00, 0.00, -0.00, -1.00, 536.9, 398.2)">n</text><text xml:space="preserve" font-family="Helvetica-Bold,Helvetica" font-weight="bold" font-size="62.7" fill="#919191" transform="matrix(1.00, 0.00, -0.00, -1.00, 575.2, 398.2)">t</text><text xml:space="preserve" font-family="Helvetica-Bold,Helvetica" font-weight="bold" font-size="62.7" fill="#919191" transform="matrix(1.00, 0.00, -0.00, -1.00, 596.1, 398.2)">s</text><text xml:space="preserve" font-family="Helvetica-Bold,Helvetica" font-weight="bold" font-size="62.7" fill="#919191" transform="matrix(1.00, 0.00, -0.00, -1.00, 631.0, 398.2)"> </text><text xml:space="preserve" font-family="Helvetica-Bold,Helvetica" font-weight="bold" font-size="62.7" fill="#919191" transform="matrix(1.00, 0.00, -0.00, -1.00, 648.4, 398.2)">t</text><text xml:space="preserve" font-family="Helvetica-Bold,Helvetica" font-weight="bold" font-size="62.7" fill="#919191" transform="matrix(1.00, 0.00, -0.00, -1.00, 669.3, 398.2)">o</text><text xml:space="preserve" font-family="Helvetica-Bold,Helvetica" font-weight="bold" font-size="62.7" fill="#919191" transform="matrix(1.00, 0.00, -0.00, -1.00, 707.6, 398.2)"> </text><text xml:space="preserve" font-family="Helvetica-Bold,Helvetica" font-weight="bold" font-size="62.7" fill="#919191" transform="matrix(1.00, 0.00, -0.00, -1.00, 725.0, 398.2)">d</text><text xml:space="preserve" font-family="Helvetica-Bold,Helvetica" font-weight="bold" font-size="62.7" fill="#919191" transform="matrix(1.00, 0.00, -0.00, -1.00, 763.3, 398.2)">e</text><text xml:space="preserve" font-family="Helvetica-Bold,Helvetica" font-weight="bold" font-size="62.7" fill="#919191" transform="matrix(1.00, 0.00, -0.00, -1.00, 798.2, 398.2)">l</text><text xml:space="preserve" font-family="Helvetica-Bold,Helvetica" font-weight="bold" font-size="62.7" fill="#919191" transform="matrix(1.00, 0.00, -0.00, -1.00, 815.6, 398.2)">i</text><text xml:space="preserve" font-family="Helvetica-Bold,Helvetica" font-weight="bold" font-size="62.7" fill="#919191" transform="matrix(1.00, 0.00, -0.00, -1.00, 833.0, 398.2)">v</text><text xml:space="preserve" font-family="Helvetica-Bold,Helvetica" font-weight="bold" font-size="62.7" fill="#919191" transform="matrix(1.00, 0.00, -0.00, -1.00, 867.9, 398.2)">e</text><text xml:space="preserve" font-family="Helvetica-Bold,Helvetica" font-weight="bold" font-size="62.7" fill="#919191" transform="matrix(1.00, 0.00, -0.00, -1.00, 902.8, 398.2)">r</text><text xml:space="preserve" font-family="Helvetica-Bold,Helvetica" font-weight="bold" font-size="62.7" fill="#919191" transform="matrix(1.00, 0.00, -0.00, -1.00, 927.2, 398.2)"> </text><text xml:space="preserve" font-family="Helvetica-Bold,Helvetica" font-weight="bold" font-size="62.7" fill="#919191" transform="matrix(1.00, 0.00, -0.00, -1.00, 76.8, 324.2)">s</text><text xml:space="preserve" font-family="Helvetica-Bold,Helvetica" font-weight="bold" font-size="62.7" fill="#919191" transform="matrix(1.00, 0.00, -0.00, -1.00, 111.7, 324.2)">e</text><text xml:space="preserve" font-family="Helvetica-Bold,Helvetica" font-weight="bold" font-size="62.7" fill="#919191" transform="matrix(1.00, 0.00, -0.00, -1.00, 146.6, 324.2)">r</text><text xml:space="preserve" font-family="Helvetica-Bold,Helvetica" font-weight="bold" font-size="62.7" fill="#919191" transform="matrix(1.00, 0.00, -0.00, -1.00, 171.0, 324.2)">v</text><text xml:space="preserve" font-family="Helvetica-Bold,Helvetica" font-weight="bold" font-size="62.7" fill="#919191" transform="matrix(1.00, 0.00, -0.00, -1.00, 205.9, 324.2)">i</text><text xml:space="preserve" font-family="Helvetica-Bold,Helvetica" font-weight="bold" font-size="62.7" fill="#919191" transform="matrix(1.00, 0.00, -0.00, -1.00, 223.3, 324.2)">c</text><text xml:space="preserve" font-family="Helvetica-Bold,Helvetica" font-weight="bold" font-size="62.7" fill="#919191" transform="matrix(1.00, 0.00, -0.00, -1.00, 258.2, 324.2)">e</text><text xml:space="preserve" font-family="Helvetica-Bold,Helvetica" font-weight="bold" font-size="62.7" fill="#919191" transform="matrix(1.00, 0.00, -0.00, -1.00, 293.1, 324.2)">s</text><text xml:space="preserve" font-family="Helvetica-Bold,Helvetica" font-weight="bold" font-size="62.7" fill="#919191" transform="matrix(1.00, 0.00, -0.00, -1.00, 328.0, 324.2)">,</text><text xml:space="preserve" font-family="Helvetica-Bold,Helvetica" font-weight="bold" font-size="62.7" fill="#919191" transform="matrix(1.00, 0.00, -0.00, -1.00, 345.5, 324.2)"> </text><text xml:space="preserve" font-family="Helvetica-Bold,Helvetica" font-weight="bold" font-size="62.7" fill="#919191" transform="matrix(1.00, 0.00, -0.00, -1.00, 362.9, 324.2)">s</text><text xml:space="preserve" font-family="Helvetica-Bold,Helvetica" font-weight="bold" font-size="62.7" fill="#919191" transform="matrix(1.00, 0.00, -0.00, -1.00, 397.8, 324.2)">h</text><text xml:space="preserve" font-family="Helvetica-Bold,Helvetica" font-weight="bold" font-size="62.7" fill="#919191" transform="matrix(1.00, 0.00, -0.00, -1.00, 436.1, 324.2)">a</text><text xml:space="preserve" font-family="Helvetica-Bold,Helvetica" font-weight="bold" font-size="62.7" fill="#919191" transform="matrix(1.00, 0.00, -0.00, -1.00, 471.0, 324.2)">r</text><text xml:space="preserve" font-family="Helvetica-Bold,Helvetica" font-weight="bold" font-size="62.7" fill="#919191" transform="matrix(1.00, 0.00, -0.00, -1.00, 495.4, 324.2)">e</text><text xml:space="preserve" font-family="Helvetica-Bold,Helvetica" font-weight="bold" font-size="62.7" fill="#919191" transform="matrix(1.00, 0.00, -0.00, -1.00, 530.3, 324.2)"> </text><text xml:space="preserve" font-family="Helvetica-Bold,Helvetica" font-weight="bold" font-size="62.7" fill="#919191" transform="matrix(1.00, 0.00, -0.00, -1.00, 547.8, 324.2)">k</text><text xml:space="preserve" font-family="Helvetica-Bold,Helvetica" font-weight="bold" font-size="62.7" fill="#919191" transform="matrix(1.00, 0.00, -0.00, -1.00, 582.7, 324.2)">n</text><text xml:space="preserve" font-family="Helvetica-Bold,Helvetica" font-weight="bold" font-size="62.7" fill="#919191" transform="matrix(1.00, 0.00, -0.00, -1.00, 621.0, 324.2)">o</text><text xml:space="preserve" font-family="Helvetica-Bold,Helvetica" font-weight="bold" font-size="62.7" fill="#919191" transform="matrix(1.00, 0.00, -0.00, -1.00, 659.3, 324.2)">w</text><text xml:space="preserve" font-family="Helvetica-Bold,Helvetica" font-weight="bold" font-size="62.7" fill="#919191" transform="matrix(1.00, 0.00, -0.00, -1.00, 708.1, 324.2)">l</text><text xml:space="preserve" font-family="Helvetica-Bold,Helvetica" font-weight="bold" font-size="62.7" fill="#919191" transform="matrix(1.00, 0.00, -0.00, -1.00, 725.5, 324.2)">e</text><text xml:space="preserve" font-family="Helvetica-Bold,Helvetica" font-weight="bold" font-size="62.7" fill="#919191" transform="matrix(1.00, 0.00, -0.00, -1.00, 760.4, 324.2)">d</text><text xml:space="preserve" font-family="Helvetica-Bold,Helvetica" font-weight="bold" font-size="62.7" fill="#919191" transform="matrix(1.00, 0.00, -0.00, -1.00, 798.8, 324.2)">g</text><text xml:space="preserve" font-family="Helvetica-Bold,Helvetica" font-weight="bold" font-size="62.7" fill="#919191" transform="matrix(1.00, 0.00, -0.00, -1.00, 837.1, 324.2)">e</text><text xml:space="preserve" font-family="Helvetica-Bold,Helvetica" font-weight="bold" font-size="62.7" fill="#919191" transform="matrix(1.00, 0.00, -0.00, -1.00, 872.0, 324.2)">,</text><text xml:space="preserve" font-family="Helvetica-Bold,Helvetica" font-weight="bold" font-size="62.7" fill="#919191" transform="matrix(1.00, 0.00, -0.00, -1.00, 889.4, 324.2)"> </text><text xml:space="preserve" font-family="Helvetica-Bold,Helvetica" font-weight="bold" font-size="62.7" fill="#919191" transform="matrix(1.00, 0.00, -0.00, -1.00, 76.8, 250.2)">a</text><text xml:space="preserve" font-family="Helvetica-Bold,Helvetica" font-weight="bold" font-size="62.7" fill="#919191" transform="matrix(1.00, 0.00, -0.00, -1.00, 111.7, 250.2)">n</text><text xml:space="preserve" font-family="Helvetica-Bold,Helvetica" font-weight="bold" font-size="62.7" fill="#919191" transform="matrix(1.00, 0.00, -0.00, -1.00, 150.0, 250.2)">d</text><text xml:space="preserve" font-family="Helvetica-Bold,Helvetica" font-weight="bold" font-size="62.7" fill="#919191" transform="matrix(1.00, 0.00, -0.00, -1.00, 188.3, 250.2)"> </text><text xml:space="preserve" font-family="Helvetica-Bold,Helvetica" font-weight="bold" font-size="62.7" fill="#51A7F9" transform="matrix(1.00, 0.00, -0.00, -1.00, 205.7, 250.2)">s</text><text xml:space="preserve" font-family="Helvetica-Bold,Helvetica" font-weight="bold" font-size="62.7" fill="#51A7F9" transform="matrix(1.00, 0.00, -0.00, -1.00, 240.6, 250.2)">e</text><text xml:space="preserve" font-family="Helvetica-Bold,Helvetica" font-weight="bold" font-size="62.7" fill="#51A7F9" transform="matrix(1.00, 0.00, -0.00, -1.00, 275.5, 250.2)">r</text><text xml:space="preserve" font-family="Helvetica-Bold,Helvetica" font-weight="bold" font-size="62.7" fill="#51A7F9" transform="matrix(1.00, 0.00, -0.00, -1.00, 299.9, 250.2)">v</text><text xml:space="preserve" font-family="Helvetica-Bold,Helvetica" font-weight="bold" font-size="62.7" fill="#51A7F9" transform="matrix(1.00, 0.00, -0.00, -1.00, 334.8, 250.2)">e</text><text xml:space="preserve" font-family="Helvetica-Bold,Helvetica" font-weight="bold" font-size="62.7" fill="#51A7F9" transform="matrix(1.00, 0.00, -0.00, -1.00, 369.7, 250.2)"> </text><text xml:space="preserve" font-family="Helvetica-Bold,Helvetica" font-weight="bold" font-size="62.7" fill="#51A7F9" transform="matrix(1.00, 0.00, -0.00, -1.00, 387.1, 250.2)">t</text><text xml:space="preserve" font-family="Helvetica-Bold,Helvetica" font-weight="bold" font-size="62.7" fill="#51A7F9" transform="matrix(1.00, 0.00, -0.00, -1.00, 408.0, 250.2)">h</text><text xml:space="preserve" font-family="Helvetica-Bold,Helvetica" font-weight="bold" font-size="62.7" fill="#51A7F9" transform="matrix(1.00, 0.00, -0.00, -1.00, 446.3, 250.2)">e</text><text xml:space="preserve" font-family="Helvetica-Bold,Helvetica" font-weight="bold" font-size="62.7" fill="#51A7F9" transform="matrix(1.00, 0.00, -0.00, -1.00, 481.2, 250.2)"> </text><text xml:space="preserve" font-family="Helvetica-Bold,Helvetica" font-weight="bold" font-size="62.7" fill="#51A7F9" transform="matrix(1.00, 0.00, -0.00, -1.00, 498.6, 250.2)">p</text><text xml:space="preserve" font-family="Helvetica-Bold,Helvetica" font-weight="bold" font-size="62.7" fill="#51A7F9" transform="matrix(1.00, 0.00, -0.00, -1.00, 536.9, 250.2)">u</text><text xml:space="preserve" font-family="Helvetica-Bold,Helvetica" font-weight="bold" font-size="62.7" fill="#51A7F9" transform="matrix(1.00, 0.00, -0.00, -1.00, 575.2, 250.2)">b</text><text xml:space="preserve" font-family="Helvetica-Bold,Helvetica" font-weight="bold" font-size="62.7" fill="#51A7F9" transform="matrix(1.00, 0.00, -0.00, -1.00, 613.5, 250.2)">l</text><text xml:space="preserve" font-family="Helvetica-Bold,Helvetica" font-weight="bold" font-size="62.7" fill="#51A7F9" transform="matrix(1.00, 0.00, -0.00, -1.00, 630.9, 250.2)">i</text><text xml:space="preserve" font-family="Helvetica-Bold,Helvetica" font-weight="bold" font-size="62.7" fill="#51A7F9" transform="matrix(1.00, 0.00, -0.00, -1.00, 648.4, 250.2)">c</text><text xml:space="preserve" font-family="Helvetica-Bold,Helvetica" font-weight="bold" font-size="62.7" fill="#51A7F9" transform="matrix(1.00, 0.00, -0.00, -1.00, 683.3, 250.2)"> </text><text xml:space="preserve" font-family="Helvetica-Bold,Helvetica" font-weight="bold" font-size="62.7" fill="#919191" transform="matrix(1.00, 0.00, -0.00, -1.00, 700.7, 250.2)">t</text><text xml:space="preserve" font-family="Helvetica-Bold,Helvetica" font-weight="bold" font-size="62.7" fill="#919191" transform="matrix(1.00, 0.00, -0.00, -1.00, 721.6, 250.2)">h</text><text xml:space="preserve" font-family="Helvetica-Bold,Helvetica" font-weight="bold" font-size="62.7" fill="#919191" transform="matrix(1.00, 0.00, -0.00, -1.00, 759.9, 250.2)">r</text><text xml:space="preserve" font-family="Helvetica-Bold,Helvetica" font-weight="bold" font-size="62.7" fill="#919191" transform="matrix(1.00, 0.00, -0.00, -1.00, 784.3, 250.2)">o</text><text xml:space="preserve" font-family="Helvetica-Bold,Helvetica" font-weight="bold" font-size="62.7" fill="#919191" transform="matrix(1.00, 0.00, -0.00, -1.00, 822.6, 250.2)">u</text><text xml:space="preserve" font-family="Helvetica-Bold,Helvetica" font-weight="bold" font-size="62.7" fill="#919191" transform="matrix(1.00, 0.00, -0.00, -1.00, 860.9, 250.2)">g</text><text xml:space="preserve" font-family="Helvetica-Bold,Helvetica" font-weight="bold" font-size="62.7" fill="#919191" transform="matrix(1.00, 0.00, -0.00, -1.00, 899.2, 250.2)">h</text><text xml:space="preserve" font-family="Helvetica-Bold,Helvetica" font-weight="bold" font-size="62.7" fill="#919191" transform="matrix(1.00, 0.00, -0.00, -1.00, 937.5, 250.2)"> </text><text xml:space="preserve" font-family="Helvetica-Bold,Helvetica" font-weight="bold" font-size="62.7" fill="#919191" transform="matrix(1.00, 0.00, -0.00, -1.00, 76.8, 176.2)">t</text><text xml:space="preserve" font-family="Helvetica-Bold,Helvetica" font-weight="bold" font-size="62.7" fill="#919191" transform="matrix(1.00, 0.00, -0.00, -1.00, 97.7, 176.2)">e</text><text xml:space="preserve" font-family="Helvetica-Bold,Helvetica" font-weight="bold" font-size="62.7" fill="#919191" transform="matrix(1.00, 0.00, -0.00, -1.00, 132.6, 176.2)">c</text><text xml:space="preserve" font-family="Helvetica-Bold,Helvetica" font-weight="bold" font-size="62.7" fill="#919191" transform="matrix(1.00, 0.00, -0.00, -1.00, 167.5, 176.2)">h</text><text xml:space="preserve" font-family="Helvetica-Bold,Helvetica" font-weight="bold" font-size="62.7" fill="#919191" transform="matrix(1.00, 0.00, -0.00, -1.00, 205.8, 176.2)">n</text><text xml:space="preserve" font-family="Helvetica-Bold,Helvetica" font-weight="bold" font-size="62.7" fill="#919191" transform="matrix(1.00, 0.00, -0.00, -1.00, 244.1, 176.2)">o</text><text xml:space="preserve" font-family="Helvetica-Bold,Helvetica" font-weight="bold" font-size="62.7" fill="#919191" transform="matrix(1.00, 0.00, -0.00, -1.00, 282.4, 176.2)">l</text><text xml:space="preserve" font-family="Helvetica-Bold,Helvetica" font-weight="bold" font-size="62.7" fill="#919191" transform="matrix(1.00, 0.00, -0.00, -1.00, 299.8, 176.2)">o</text><text xml:space="preserve" font-family="Helvetica-Bold,Helvetica" font-weight="bold" font-size="62.7" fill="#919191" transform="matrix(1.00, 0.00, -0.00, -1.00, 338.1, 176.2)">g</text><text xml:space="preserve" font-family="Helvetica-Bold,Helvetica" font-weight="bold" font-size="62.7" fill="#919191" transform="matrix(1.00, 0.00, -0.00, -1.00, 376.4, 176.2)">y</text><text xml:space="preserve" font-family="Helvetica-Bold,Helvetica" font-weight="bold" font-size="62.7" fill="#919191" transform="matrix(1.00, 0.00, -0.00, -1.00, 406.7, 176.2)">.</text><path d="M 803.6 718.8 L 804.0 768.0 L 939.0 768.0 L 939.0 720.0 L 873.8 695.5 L 803.6 718.8 Z M 803.6 718.8 " fill="#51A7F9"></path><image xlink:href="../../FB90FBA1-BE72-46B7-8D09-F3AE4E92E71C/assets/0E5B9E3E741A9A230F34A20727CF770C.png" width="303.00" height="130.00" transform="matrix(0.43, 0.00, -0.00, -0.43, 806.6, 767.0)"></image></g></svg>