<?xml version="1.0" encoding="UTF-8" standalone="no"?><svg xmlns="http://www.w3.org/2000/svg" xmlns:xlink="http://www.w3.org/1999/xlink" clip-rule="evenodd" stroke-miterlimit="10" viewBox="0 0 1024 768"><desc>SVG generated by Keynote</desc><defs></defs><g transform="matrix(1.00, 0.00, -0.00, -1.00, 0.0, 768.0)"><path d="M 0.0 768.0 L 1024.0 768.0 L 1024.0 0.0 L 0.0 0.0 Z M 0.0 768.0 " fill="#851001"></path><path d="M 788.7 716.2 L 789.0 768.0 L 939.0 768.0 L 939.0 717.5 L 866.6 691.2 L 788.7 716.2 Z M 788.7 716.2 " fill="#FEFFFE"></path><image xlink:href="../../FB90FBA1-BE72-46B7-8D09-F3AE4E92E71C/assets/0E5B9E3E741A9A230F34A20727CF770C.png" width="303.00" height="130.00" transform="matrix(0.43, 0.00, -0.00, -0.43, 806.6, 767.0)"></image><image xlink:href="../../929689E8-CCD9-4F58-A1FD-D23BBC2A3557/assets/6B88AFAF59C70EA500657160FFC3566A.png" width="303.00" height="130.00" transform="matrix(0.42, 0.00, -0.00, -0.42, 800.9, 764.3)"></image><text xml:space="preserve" font-family="Helvetica-Light,Helvetica" font-size="58.0" fill="#FEFFFE" transform="matrix(1.00, 0.00, -0.00, -1.00, 73.1, 650.5)">P</text><text xml:space="preserve" font-family="Helvetica-Light,Helvetica" font-size="58.0" fill="#FEFFFE" transform="matrix(1.00, 0.00, -0.00, -1.00, 108.5, 650.5)">r</text><text xml:space="preserve" font-family="Helvetica-Light,Helvetica" font-size="58.0" fill="#FEFFFE" transform="matrix(1.00, 0.00, -0.00, -1.00, 126.8, 650.5)">o</text><text xml:space="preserve" font-family="Helvetica-Light,Helvetica" font-size="58.0" fill="#FEFFFE" transform="matrix(1.00, 0.00, -0.00, -1.00, 159.0, 650.5)">c</text><text xml:space="preserve" font-family="Helvetica-Light,Helvetica" font-size="58.0" fill="#FEFFFE" transform="matrix(1.00, 0.00, -0.00, -1.00, 191.3, 650.5)">e</text><text xml:space="preserve" font-family="Helvetica-Light,Helvetica" font-size="58.0" fill="#FEFFFE" transform="matrix(1.00, 0.00, -0.00, -1.00, 223.5, 650.5)">s</text><text xml:space="preserve" font-family="Helvetica-Light,Helvetica" font-size="58.0" fill="#FEFFFE" transform="matrix(1.00, 0.00, -0.00, -1.00, 252.5, 650.5)">s</text><text xml:space="preserve" font-family="Helvetica-Light,Helvetica" font-size="58.0" fill="#FEFFFE" transform="matrix(1.00, 0.00, -0.00, -1.00, 281.5, 650.5)">:</text><text xml:space="preserve" font-family="Helvetica-Light,Helvetica" font-size="58.0" fill="#FEFFFE" transform="matrix(1.00, 0.00, -0.00, -1.00, 297.6, 650.5)"> </text><text xml:space="preserve" font-family="Helvetica-Light,Helvetica" font-size="58.0" fill="#FEFFFE" transform="matrix(1.00, 0.00, -0.00, -1.00, 313.8, 650.5)">I</text><text xml:space="preserve" font-family="Helvetica-Light,Helvetica" font-size="58.0" fill="#FEFFFE" transform="matrix(1.00, 0.00, -0.00, -1.00, 329.9, 650.5)">d</text><text xml:space="preserve" font-family="Helvetica-Light,Helvetica" font-size="58.0" fill="#FEFFFE" transform="matrix(1.00, 0.00, -0.00, -1.00, 365.3, 650.5)">e</text><text xml:space="preserve" font-family="Helvetica-Light,Helvetica" font-size="58.0" fill="#FEFFFE" transform="matrix(1.00, 0.00, -0.00, -1.00, 397.6, 650.5)">n</text><text xml:space="preserve" font-family="Helvetica-Light,Helvetica" font-size="58.0" fill="#FEFFFE" transform="matrix(1.00, 0.00, -0.00, -1.00, 429.8, 650.5)">t</text><text xml:space="preserve" font-family="Helvetica-Light,Helvetica" font-size="58.0" fill="#FEFFFE" transform="matrix(1.00, 0.00, -0.00, -1.00, 445.9, 650.5)">i</text><text xml:space="preserve" font-family="Helvetica-Light,Helvetica" font-size="58.0" fill="#FEFFFE" transform="matrix(1.00, 0.00, -0.00, -1.00, 458.8, 650.5)">f</text><text xml:space="preserve" font-family="Helvetica-Light,Helvetica" font-size="58.0" fill="#FEFFFE" transform="matrix(1.00, 0.00, -0.00, -1.00, 474.9, 650.5)">y</text><text xml:space="preserve" font-family="Helvetica-Light,Helvetica" font-size="58.0" fill="#FEFFFE" transform="matrix(1.00, 0.00, -0.00, -1.00, 503.9, 650.5)"> </text><text xml:space="preserve" font-family="Helvetica-Light,Helvetica" font-size="58.0" fill="#FEFFFE" transform="matrix(1.00, 0.00, -0.00, -1.00, 520.1, 650.5)">U</text><text xml:space="preserve" font-family="Helvetica-Light,Helvetica" font-size="58.0" fill="#FEFFFE" transform="matrix(1.00, 0.00, -0.00, -1.00, 561.9, 650.5)">s</text><text xml:space="preserve" font-family="Helvetica-Light,Helvetica" font-size="58.0" fill="#FEFFFE" transform="matrix(1.00, 0.00, -0.00, -1.00, 590.9, 650.5)">e</text><text xml:space="preserve" font-family="Helvetica-Light,Helvetica" font-size="58.0" fill="#FEFFFE" transform="matrix(1.00, 0.00, -0.00, -1.00, 623.2, 650.5)">r</text><text xml:space="preserve" font-family="Helvetica-Light,Helvetica" font-size="58.0" fill="#FEFFFE" transform="matrix(1.00, 0.00, -0.00, -1.00, 642.5, 650.5)"> </text><text xml:space="preserve" font-family="Helvetica-Light,Helvetica" font-size="58.0" fill="#FEFFFE" transform="matrix(1.00, 0.00, -0.00, -1.00, 658.6, 650.5)">N</text><text xml:space="preserve" font-family="Helvetica-Light,Helvetica" font-size="58.0" fill="#FEFFFE" transform="matrix(1.00, 0.00, -0.00, -1.00, 700.5, 650.5)">e</text><text xml:space="preserve" font-family="Helvetica-Light,Helvetica" font-size="58.0" fill="#FEFFFE" transform="matrix(1.00, 0.00, -0.00, -1.00, 732.8, 650.5)">e</text><text xml:space="preserve" font-family="Helvetica-Light,Helvetica" font-size="58.0" fill="#FEFFFE" transform="matrix(1.00, 0.00, -0.00, -1.00, 765.0, 650.5)">d</text><image xlink:href="../../929689E8-CCD9-4F58-A1FD-D23BBC2A3557/assets/21C363A9F2161DD6A9D138C4DCD1621D.jpeg" width="3264.00" height="2448.00" transform="matrix(0.10, 0.00, -0.00, -0.10, 620.9, 321.5)"></image><image xlink:href="../../929689E8-CCD9-4F58-A1FD-D23BBC2A3557/assets/B55BEA43966D8EBAE3E319C83C856F58.jpeg" width="3060.00" height="2448.00" transform="matrix(0.11, 0.00, -0.00, -0.11, 620.9, 605.3)"></image><image xlink:href="../../929689E8-CCD9-4F58-A1FD-D23BBC2A3557/assets/95AC5F3920D490061EE3D0601B464B9D.jpeg" width="3053.00" height="2442.00" transform="matrix(0.17, 0.00, -0.00, -0.17, 72.1, 605.3)"></image><text xml:space="preserve" font-family="Helvetica-Bold,Helvetica" font-weight="bold" font-size="31.6" fill="#FEFFFE" transform="matrix(1.00, 0.00, -0.00, -1.00, 73.1, 119.6)">S</text><text xml:space="preserve" font-family="Helvetica-Bold,Helvetica" font-weight="bold" font-size="31.6" fill="#FEFFFE" transform="matrix(1.00, 0.00, -0.00, -1.00, 94.1, 119.6)">p</text><text xml:space="preserve" font-family="Helvetica-Bold,Helvetica" font-weight="bold" font-size="31.6" fill="#FEFFFE" transform="matrix(1.00, 0.00, -0.00, -1.00, 113.4, 119.6)">e</text><text xml:space="preserve" font-family="Helvetica-Bold,Helvetica" font-weight="bold" font-size="31.6" fill="#FEFFFE" transform="matrix(1.00, 0.00, -0.00, -1.00, 131.0, 119.6)">a</text><text xml:space="preserve" font-family="Helvetica-Bold,Helvetica" font-weight="bold" font-size="31.6" fill="#FEFFFE" transform="matrix(1.00, 0.00, -0.00, -1.00, 148.5, 119.6)">k</text><text xml:space="preserve" font-family="Helvetica-Bold,Helvetica" font-weight="bold" font-size="31.6" fill="#FEFFFE" transform="matrix(1.00, 0.00, -0.00, -1.00, 166.1, 119.6)"> </text><text xml:space="preserve" font-family="Helvetica-Bold,Helvetica" font-weight="bold" font-size="31.6" fill="#FEFFFE" transform="matrix(1.00, 0.00, -0.00, -1.00, 174.9, 119.6)">w</text><text xml:space="preserve" font-family="Helvetica-Bold,Helvetica" font-weight="bold" font-size="31.6" fill="#FEFFFE" transform="matrix(1.00, 0.00, -0.00, -1.00, 199.4, 119.6)">i</text><text xml:space="preserve" font-family="Helvetica-Bold,Helvetica" font-weight="bold" font-size="31.6" fill="#FEFFFE" transform="matrix(1.00, 0.00, -0.00, -1.00, 208.2, 119.6)">t</text><text xml:space="preserve" font-family="Helvetica-Bold,Helvetica" font-weight="bold" font-size="31.6" fill="#FEFFFE" transform="matrix(1.00, 0.00, -0.00, -1.00, 218.7, 119.6)">h</text><text xml:space="preserve" font-family="Helvetica-Bold,Helvetica" font-weight="bold" font-size="31.6" fill="#FEFFFE" transform="matrix(1.00, 0.00, -0.00, -1.00, 238.0, 119.6)"> </text><text xml:space="preserve" font-family="Helvetica-Bold,Helvetica" font-weight="bold" font-size="31.6" fill="#FEFFFE" transform="matrix(1.00, 0.00, -0.00, -1.00, 246.7, 119.6)">L</text><text xml:space="preserve" font-family="Helvetica-Bold,Helvetica" font-weight="bold" font-size="31.6" fill="#FEFFFE" transform="matrix(1.00, 0.00, -0.00, -1.00, 266.0, 119.6)">e</text><text xml:space="preserve" font-family="Helvetica-Bold,Helvetica" font-weight="bold" font-size="31.6" fill="#FEFFFE" transform="matrix(1.00, 0.00, -0.00, -1.00, 283.6, 119.6)">x</text><text xml:space="preserve" font-family="Helvetica-Bold,Helvetica" font-weight="bold" font-size="31.6" fill="#FEFFFE" transform="matrix(1.00, 0.00, -0.00, -1.00, 301.1, 119.6)">i</text><text xml:space="preserve" font-family="Helvetica-Bold,Helvetica" font-weight="bold" font-size="31.6" fill="#FEFFFE" transform="matrix(1.00, 0.00, -0.00, -1.00, 309.9, 119.6)">n</text><text xml:space="preserve" font-family="Helvetica-Bold,Helvetica" font-weight="bold" font-size="31.6" fill="#FEFFFE" transform="matrix(1.00, 0.00, -0.00, -1.00, 329.2, 119.6)">g</text><text xml:space="preserve" font-family="Helvetica-Bold,Helvetica" font-weight="bold" font-size="31.6" fill="#FEFFFE" transform="matrix(1.00, 0.00, -0.00, -1.00, 348.5, 119.6)">t</text><text xml:space="preserve" font-family="Helvetica-Bold,Helvetica" font-weight="bold" font-size="31.6" fill="#FEFFFE" transform="matrix(1.00, 0.00, -0.00, -1.00, 359.0, 119.6)">o</text><text xml:space="preserve" font-family="Helvetica-Bold,Helvetica" font-weight="bold" font-size="31.6" fill="#FEFFFE" transform="matrix(1.00, 0.00, -0.00, -1.00, 378.2, 119.6)">n</text><text xml:space="preserve" font-family="Helvetica-Bold,Helvetica" font-weight="bold" font-size="31.6" fill="#FEFFFE" transform="matrix(1.00, 0.00, -0.00, -1.00, 397.5, 119.6)">i</text><text xml:space="preserve" font-family="Helvetica-Bold,Helvetica" font-weight="bold" font-size="31.6" fill="#FEFFFE" transform="matrix(1.00, 0.00, -0.00, -1.00, 406.3, 119.6)">a</text><text xml:space="preserve" font-family="Helvetica-Bold,Helvetica" font-weight="bold" font-size="31.6" fill="#FEFFFE" transform="matrix(1.00, 0.00, -0.00, -1.00, 423.9, 119.6)">n</text><text xml:space="preserve" font-family="Helvetica-Bold,Helvetica" font-weight="bold" font-size="31.6" fill="#FEFFFE" transform="matrix(1.00, 0.00, -0.00, -1.00, 443.1, 119.6)">s</text><text xml:space="preserve" font-family="Helvetica-Bold,Helvetica" font-weight="bold" font-size="31.6" fill="#FEFFFE" transform="matrix(1.00, 0.00, -0.00, -1.00, 460.7, 119.6)">.</text><text xml:space="preserve" font-family="Helvetica-Bold,Helvetica" font-weight="bold" font-size="31.6" fill="#FEFFFE" transform="matrix(1.00, 0.00, -0.00, -1.00, 73.1, 82.6)">H</text><text xml:space="preserve" font-family="Helvetica-Bold,Helvetica" font-weight="bold" font-size="31.6" fill="#FEFFFE" transform="matrix(1.00, 0.00, -0.00, -1.00, 95.9, 82.6)">o</text><text xml:space="preserve" font-family="Helvetica-Bold,Helvetica" font-weight="bold" font-size="31.6" fill="#FEFFFE" transform="matrix(1.00, 0.00, -0.00, -1.00, 115.1, 82.6)">w</text><text xml:space="preserve" font-family="Helvetica-Bold,Helvetica" font-weight="bold" font-size="31.6" fill="#FEFFFE" transform="matrix(1.00, 0.00, -0.00, -1.00, 139.7, 82.6)"> </text><text xml:space="preserve" font-family="Helvetica-Bold,Helvetica" font-weight="bold" font-size="31.6" fill="#FEFFFE" transform="matrix(1.00, 0.00, -0.00, -1.00, 148.5, 82.6)">d</text><text xml:space="preserve" font-family="Helvetica-Bold,Helvetica" font-weight="bold" font-size="31.6" fill="#FEFFFE" transform="matrix(1.00, 0.00, -0.00, -1.00, 167.7, 82.6)">o</text><text xml:space="preserve" font-family="Helvetica-Bold,Helvetica" font-weight="bold" font-size="31.6" fill="#FEFFFE" transform="matrix(1.00, 0.00, -0.00, -1.00, 187.0, 82.6)"> </text><text xml:space="preserve" font-family="Helvetica-Bold,Helvetica" font-weight="bold" font-size="31.6" fill="#FEFFFE" transform="matrix(1.00, 0.00, -0.00, -1.00, 195.8, 82.6)">t</text><text xml:space="preserve" font-family="Helvetica-Bold,Helvetica" font-weight="bold" font-size="31.6" fill="#FEFFFE" transform="matrix(1.00, 0.00, -0.00, -1.00, 206.3, 82.6)">h</text><text xml:space="preserve" font-family="Helvetica-Bold,Helvetica" font-weight="bold" font-size="31.6" fill="#FEFFFE" transform="matrix(1.00, 0.00, -0.00, -1.00, 225.6, 82.6)">e</text><text xml:space="preserve" font-family="Helvetica-Bold,Helvetica" font-weight="bold" font-size="31.6" fill="#FEFFFE" transform="matrix(1.00, 0.00, -0.00, -1.00, 243.1, 82.6)">y</text><text xml:space="preserve" font-family="Helvetica-Bold,Helvetica" font-weight="bold" font-size="31.6" fill="#FEFFFE" transform="matrix(1.00, 0.00, -0.00, -1.00, 260.7, 82.6)"> </text><text xml:space="preserve" font-family="Helvetica-Bold,Helvetica" font-weight="bold" font-size="31.6" fill="#FEFFFE" transform="matrix(1.00, 0.00, -0.00, -1.00, 269.5, 82.6)">i</text><text xml:space="preserve" font-family="Helvetica-Bold,Helvetica" font-weight="bold" font-size="31.6" fill="#FEFFFE" transform="matrix(1.00, 0.00, -0.00, -1.00, 278.2, 82.6)">n</text><text xml:space="preserve" font-family="Helvetica-Bold,Helvetica" font-weight="bold" font-size="31.6" fill="#FEFFFE" transform="matrix(1.00, 0.00, -0.00, -1.00, 297.5, 82.6)">t</text><text xml:space="preserve" font-family="Helvetica-Bold,Helvetica" font-weight="bold" font-size="31.6" fill="#FEFFFE" transform="matrix(1.00, 0.00, -0.00, -1.00, 308.0, 82.6)">e</text><text xml:space="preserve" font-family="Helvetica-Bold,Helvetica" font-weight="bold" font-size="31.6" fill="#FEFFFE" transform="matrix(1.00, 0.00, -0.00, -1.00, 325.6, 82.6)">r</text><text xml:space="preserve" font-family="Helvetica-Bold,Helvetica" font-weight="bold" font-size="31.6" fill="#FEFFFE" transform="matrix(1.00, 0.00, -0.00, -1.00, 337.9, 82.6)">a</text><text xml:space="preserve" font-family="Helvetica-Bold,Helvetica" font-weight="bold" font-size="31.6" fill="#FEFFFE" transform="matrix(1.00, 0.00, -0.00, -1.00, 355.4, 82.6)">c</text><text xml:space="preserve" font-family="Helvetica-Bold,Helvetica" font-weight="bold" font-size="31.6" fill="#FEFFFE" transform="matrix(1.00, 0.00, -0.00, -1.00, 373.0, 82.6)">t</text><text xml:space="preserve" font-family="Helvetica-Bold,Helvetica" font-weight="bold" font-size="31.6" fill="#FEFFFE" transform="matrix(1.00, 0.00, -0.00, -1.00, 383.5, 82.6)"> </text><text xml:space="preserve" font-family="Helvetica-Bold,Helvetica" font-weight="bold" font-size="31.6" fill="#FEFFFE" transform="matrix(1.00, 0.00, -0.00, -1.00, 392.3, 82.6)">w</text><text xml:space="preserve" font-family="Helvetica-Bold,Helvetica" font-weight="bold" font-size="31.6" fill="#FEFFFE" transform="matrix(1.00, 0.00, -0.00, -1.00, 416.8, 82.6)">i</text><text xml:space="preserve" font-family="Helvetica-Bold,Helvetica" font-weight="bold" font-size="31.6" fill="#FEFFFE" transform="matrix(1.00, 0.00, -0.00, -1.00, 425.6, 82.6)">t</text><text xml:space="preserve" font-family="Helvetica-Bold,Helvetica" font-weight="bold" font-size="31.6" fill="#FEFFFE" transform="matrix(1.00, 0.00, -0.00, -1.00, 436.1, 82.6)">h</text><text xml:space="preserve" font-family="Helvetica-Bold,Helvetica" font-weight="bold" font-size="31.6" fill="#FEFFFE" transform="matrix(1.00, 0.00, -0.00, -1.00, 455.4, 82.6)"> </text><text xml:space="preserve" font-family="Helvetica-Bold,Helvetica" font-weight="bold" font-size="31.6" fill="#FEFFFE" transform="matrix(1.00, 0.00, -0.00, -1.00, 464.2, 82.6)">t</text><text xml:space="preserve" font-family="Helvetica-Bold,Helvetica" font-weight="bold" font-size="31.6" fill="#FEFFFE" transform="matrix(1.00, 0.00, -0.00, -1.00, 474.7, 82.6)">h</text><text xml:space="preserve" font-family="Helvetica-Bold,Helvetica" font-weight="bold" font-size="31.6" fill="#FEFFFE" transform="matrix(1.00, 0.00, -0.00, -1.00, 493.9, 82.6)">e</text><text xml:space="preserve" font-family="Helvetica-Bold,Helvetica" font-weight="bold" font-size="31.6" fill="#FEFFFE" transform="matrix(1.00, 0.00, -0.00, -1.00, 511.5, 82.6)"> </text><text xml:space="preserve" font-family="Helvetica-Bold,Helvetica" font-weight="bold" font-size="31.6" fill="#FEFFFE" transform="matrix(1.00, 0.00, -0.00, -1.00, 520.3, 82.6)">c</text><text xml:space="preserve" font-family="Helvetica-Bold,Helvetica" font-weight="bold" font-size="31.6" fill="#FEFFFE" transform="matrix(1.00, 0.00, -0.00, -1.00, 537.8, 82.6)">i</text><text xml:space="preserve" font-family="Helvetica-Bold,Helvetica" font-weight="bold" font-size="31.6" fill="#FEFFFE" transform="matrix(1.00, 0.00, -0.00, -1.00, 546.6, 82.6)">t</text><text xml:space="preserve" font-family="Helvetica-Bold,Helvetica" font-weight="bold" font-size="31.6" fill="#FEFFFE" transform="matrix(1.00, 0.00, -0.00, -1.00, 557.1, 82.6)">y</text><text xml:space="preserve" font-family="Helvetica-Bold,Helvetica" font-weight="bold" font-size="31.6" fill="#FEFFFE" transform="matrix(1.00, 0.00, -0.00, -1.00, 574.7, 82.6)">?</text></g></svg>