<?xml version="1.0" encoding="UTF-8" standalone="no"?><svg xmlns="http://www.w3.org/2000/svg" xmlns:xlink="http://www.w3.org/1999/xlink" clip-rule="evenodd" stroke-miterlimit="10" viewBox="0 0 1024 768"><desc>SVG generated by Keynote</desc><defs></defs><g transform="matrix(1.00, 0.00, -0.00, -1.00, 0.0, 768.0)"><path d="M 0.0 768.0 L 1024.0 768.0 L 1024.0 0.0 L 0.0 0.0 Z M 0.0 768.0 " fill="#164E86"></path><path d="M 796.1 716.2 L 796.0 768.0 L 947.0 768.0 L 947.0 717.5 L 874.0 691.2 L 796.1 716.2 Z M 796.1 716.2 " fill="#51A7F9"></path><image xlink:href="../../FB90FBA1-BE72-46B7-8D09-F3AE4E92E71C/assets/0E5B9E3E741A9A230F34A20727CF770C.png" width="303.00" height="130.00" transform="matrix(0.43, 0.00, -0.00, -0.43, 806.6, 767.0)"></image><text xml:space="preserve" font-family="Helvetica-Bold,Helvetica" font-weight="bold" font-size="40.0" fill="#FEFFFE" transform="matrix(1.00, 0.00, -0.00, -1.00, 150.4, 680.2)">S</text><text xml:space="preserve" font-family="Helvetica-Bold,Helvetica" font-weight="bold" font-size="40.0" fill="#FEFFFE" transform="matrix(1.00, 0.00, -0.00, -1.00, 177.1, 680.2)">e</text><text xml:space="preserve" font-family="Helvetica-Bold,Helvetica" font-weight="bold" font-size="40.0" fill="#FEFFFE" transform="matrix(1.00, 0.00, -0.00, -1.00, 199.3, 680.2)">r</text><text xml:space="preserve" font-family="Helvetica-Bold,Helvetica" font-weight="bold" font-size="40.0" fill="#FEFFFE" transform="matrix(1.00, 0.00, -0.00, -1.00, 214.9, 680.2)">v</text><text xml:space="preserve" font-family="Helvetica-Bold,Helvetica" font-weight="bold" font-size="40.0" fill="#FEFFFE" transform="matrix(1.00, 0.00, -0.00, -1.00, 237.2, 680.2)">e</text><text xml:space="preserve" font-family="Helvetica-Bold,Helvetica" font-weight="bold" font-size="40.0" fill="#FEFFFE" transform="matrix(1.00, 0.00, -0.00, -1.00, 259.4, 680.2)"> </text><text xml:space="preserve" font-family="Helvetica-Bold,Helvetica" font-weight="bold" font-size="40.0" fill="#FEFFFE" transform="matrix(1.00, 0.00, -0.00, -1.00, 270.5, 680.2)">m</text><text xml:space="preserve" font-family="Helvetica-Bold,Helvetica" font-weight="bold" font-size="40.0" fill="#FEFFFE" transform="matrix(1.00, 0.00, -0.00, -1.00, 306.1, 680.2)">o</text><text xml:space="preserve" font-family="Helvetica-Bold,Helvetica" font-weight="bold" font-size="40.0" fill="#FEFFFE" transform="matrix(1.00, 0.00, -0.00, -1.00, 330.5, 680.2)">r</text><text xml:space="preserve" font-family="Helvetica-Bold,Helvetica" font-weight="bold" font-size="40.0" fill="#FEFFFE" transform="matrix(1.00, 0.00, -0.00, -1.00, 346.1, 680.2)">e</text><text xml:space="preserve" font-family="Helvetica-Bold,Helvetica" font-weight="bold" font-size="40.0" fill="#FEFFFE" transform="matrix(1.00, 0.00, -0.00, -1.00, 368.4, 680.2)"> </text><text xml:space="preserve" font-family="Helvetica-Bold,Helvetica" font-weight="bold" font-size="40.0" fill="#FEFFFE" transform="matrix(1.00, 0.00, -0.00, -1.00, 379.5, 680.2)">u</text><text xml:space="preserve" font-family="Helvetica-Bold,Helvetica" font-weight="bold" font-size="40.0" fill="#FEFFFE" transform="matrix(1.00, 0.00, -0.00, -1.00, 403.9, 680.2)">s</text><text xml:space="preserve" font-family="Helvetica-Bold,Helvetica" font-weight="bold" font-size="40.0" fill="#FEFFFE" transform="matrix(1.00, 0.00, -0.00, -1.00, 426.1, 680.2)">e</text><text xml:space="preserve" font-family="Helvetica-Bold,Helvetica" font-weight="bold" font-size="40.0" fill="#FEFFFE" transform="matrix(1.00, 0.00, -0.00, -1.00, 448.4, 680.2)">r</text><text xml:space="preserve" font-family="Helvetica-Bold,Helvetica" font-weight="bold" font-size="40.0" fill="#FEFFFE" transform="matrix(1.00, 0.00, -0.00, -1.00, 464.0, 680.2)"> </text><text xml:space="preserve" font-family="Helvetica-Bold,Helvetica" font-weight="bold" font-size="40.0" fill="#FEFFFE" transform="matrix(1.00, 0.00, -0.00, -1.00, 475.1, 680.2)">n</text><text xml:space="preserve" font-family="Helvetica-Bold,Helvetica" font-weight="bold" font-size="40.0" fill="#FEFFFE" transform="matrix(1.00, 0.00, -0.00, -1.00, 499.5, 680.2)">e</text><text xml:space="preserve" font-family="Helvetica-Bold,Helvetica" font-weight="bold" font-size="40.0" fill="#FEFFFE" transform="matrix(1.00, 0.00, -0.00, -1.00, 521.7, 680.2)">e</text><text xml:space="preserve" font-family="Helvetica-Bold,Helvetica" font-weight="bold" font-size="40.0" fill="#FEFFFE" transform="matrix(1.00, 0.00, -0.00, -1.00, 544.0, 680.2)">d</text><text xml:space="preserve" font-family="Helvetica-Bold,Helvetica" font-weight="bold" font-size="40.0" fill="#FEFFFE" transform="matrix(1.00, 0.00, -0.00, -1.00, 568.4, 680.2)">s</text><text xml:space="preserve" font-family="Helvetica-Bold,Helvetica" font-weight="bold" font-size="40.0" fill="#FEFFFE" transform="matrix(1.00, 0.00, -0.00, -1.00, 590.7, 680.2)">!</text><g opacity="0.80"><g><clipPath id="clip0x6000038b4340"><path d="M 73.0 670.0 L 130.0 670.0 L 130.0 720.0 L 73.0 720.0 Z M 73.0 670.0 "></path></clipPath><g clip-path="url(#clip0x6000038b4340)"><image xlink:href="../../0EF04069-1A17-4755-8156-2F880B577C81/assets/C0BBD93D3415325725A23F9221FED439.png" width="100.00" height="88.00" transform="matrix(0.53, 0.00, -0.00, -0.53, 74.8, 718.6)"></image></g></g></g><image xlink:href="../../58221D7D-68CF-4CE5-9DA8-AA3309FA88FE/assets/6212C21CE16952A3829DE8828F43566F.png" width="500.00" height="361.00" transform="matrix(0.23, 0.00, -0.00, -0.23, 378.7, 417.0)"></image><image xlink:href="../../58221D7D-68CF-4CE5-9DA8-AA3309FA88FE/assets/6212C21CE16952A3829DE8828F43566F.png" width="500.00" height="361.00" transform="matrix(0.23, 0.00, -0.00, -0.23, 253.7, 327.4)"></image><image xlink:href="../../58221D7D-68CF-4CE5-9DA8-AA3309FA88FE/assets/6212C21CE16952A3829DE8828F43566F.png" width="500.00" height="361.00" transform="matrix(0.23, 0.00, -0.00, -0.23, 536.7, 417.5)"></image><text xml:space="preserve" font-family="Helvetica-Bold,Helvetica" font-weight="bold" font-size="40.0" fill="#F5D327" transform="matrix(1.00, 0.00, -0.00, -1.00, 454.8, 201.1)">O</text><text xml:space="preserve" font-family="Helvetica-Bold,Helvetica" font-weight="bold" font-size="40.0" fill="#F5D327" transform="matrix(1.00, 0.00, -0.00, -1.00, 485.9, 201.1)">P</text><text xml:space="preserve" font-family="Helvetica-Bold,Helvetica" font-weight="bold" font-size="40.0" fill="#F5D327" transform="matrix(1.00, 0.00, -0.00, -1.00, 512.6, 201.1)">E</text><text xml:space="preserve" font-family="Helvetica-Bold,Helvetica" font-weight="bold" font-size="40.0" fill="#F5D327" transform="matrix(1.00, 0.00, -0.00, -1.00, 539.3, 201.1)">N</text><text xml:space="preserve" font-family="Helvetica-Bold,Helvetica" font-weight="bold" font-size="40.0" fill="#F5D327" transform="matrix(1.00, 0.00, -0.00, -1.00, 568.2, 201.1)"> </text><text xml:space="preserve" font-family="Helvetica-Bold,Helvetica" font-weight="bold" font-size="40.0" fill="#F5D327" transform="matrix(1.00, 0.00, -0.00, -1.00, 454.8, 153.1)">D</text><text xml:space="preserve" font-family="Helvetica-Bold,Helvetica" font-weight="bold" font-size="40.0" fill="#F5D327" transform="matrix(1.00, 0.00, -0.00, -1.00, 483.7, 153.1)">A</text><text xml:space="preserve" font-family="Helvetica-Bold,Helvetica" font-weight="bold" font-size="40.0" fill="#F5D327" transform="matrix(1.00, 0.00, -0.00, -1.00, 509.6, 153.1)">T</text><text xml:space="preserve" font-family="Helvetica-Bold,Helvetica" font-weight="bold" font-size="40.0" fill="#F5D327" transform="matrix(1.00, 0.00, -0.00, -1.00, 531.1, 153.1)">A</text><image xlink:href="../../58221D7D-68CF-4CE5-9DA8-AA3309FA88FE/assets/6212C21CE16952A3829DE8828F43566F.png" width="500.00" height="361.00" transform="matrix(0.23, 0.00, -0.00, -0.23, 661.7, 327.6)"></image><image xlink:href="../../58221D7D-68CF-4CE5-9DA8-AA3309FA88FE/assets/967B4525BEEC9E6CD38503C1509A978C.png" width="472.00" height="227.00" transform="matrix(0.28, 0.00, -0.00, -0.28, 450.8, 595.8)"></image><image xlink:href="../../58221D7D-68CF-4CE5-9DA8-AA3309FA88FE/assets/A99C755524AEF77D99BFF629EA2D59E7.png" width="196.00" height="181.00" transform="matrix(1.00, 0.00, -0.00, -1.00, 417.9, 281.5)" opacity="0.50"></image><path d="M 0.1 -0.5 L 188.1 -0.5 L 188.1 173.5 L 0.1 173.5 Z M 0.0 0.0 " fill="none" stroke="#F5D327" stroke-width="6.00" stroke-dasharray="12.0, 12.0" transform="matrix(1.00, 0.00, 0.00, -1.00, 421.9, 278.5)"></path><image xlink:href="../../58221D7D-68CF-4CE5-9DA8-AA3309FA88FE/assets/967B4525BEEC9E6CD38503C1509A978C.png" width="472.00" height="227.00" transform="matrix(0.28, 0.00, -0.00, -0.28, 267.5, 531.0)"></image><image xlink:href="../../58221D7D-68CF-4CE5-9DA8-AA3309FA88FE/assets/967B4525BEEC9E6CD38503C1509A978C.png" width="472.00" height="227.00" transform="matrix(0.28, 0.00, -0.00, -0.28, 132.1, 419.7)"></image><image xlink:href="../../58221D7D-68CF-4CE5-9DA8-AA3309FA88FE/assets/967B4525BEEC9E6CD38503C1509A978C.png" width="472.00" height="227.00" transform="matrix(0.28, 0.00, -0.00, -0.28, 634.1, 532.0)"></image><image xlink:href="../../58221D7D-68CF-4CE5-9DA8-AA3309FA88FE/assets/967B4525BEEC9E6CD38503C1509A978C.png" width="472.00" height="227.00" transform="matrix(0.28, 0.00, -0.00, -0.28, 761.5, 419.7)"></image></g></svg>