<?xml version="1.0" encoding="UTF-8" standalone="no"?><svg xmlns="http://www.w3.org/2000/svg" xmlns:xlink="http://www.w3.org/1999/xlink" clip-rule="evenodd" stroke-miterlimit="10" viewBox="0 0 1024 768"><desc>SVG generated by Keynote</desc><defs></defs><g transform="matrix(1.00, 0.00, -0.00, -1.00, 0.0, 768.0)"><path d="M 0.0 768.0 L 1024.0 768.0 L 1024.0 0.0 L 0.0 0.0 Z M 0.0 768.0 " fill="#851001"></path><path d="M 796.1 716.2 L 796.0 768.0 L 947.0 768.0 L 947.0 717.5 L 874.0 691.2 L 796.1 716.2 Z M 796.1 716.2 " fill="#FF7D78"></path><text xml:space="preserve" font-family="Helvetica-Light,Helvetica" font-size="66.3" fill="#FEFFFE" transform="matrix(1.00, 0.00, -0.00, -1.00, 114.4, 524.1)">W</text><text xml:space="preserve" font-family="Helvetica-Light,Helvetica" font-size="66.3" fill="#FEFFFE" transform="matrix(1.00, 0.00, -0.00, -1.00, 172.1, 524.1)">e</text><text xml:space="preserve" font-family="Helvetica-Light,Helvetica" font-size="66.3" fill="#FEFFFE" transform="matrix(1.00, 0.00, -0.00, -1.00, 209.0, 524.1)"> </text><text xml:space="preserve" font-family="Helvetica-Light,Helvetica" font-size="66.3" fill="#FEFFFE" transform="matrix(1.00, 0.00, -0.00, -1.00, 227.4, 524.1)">n</text><text xml:space="preserve" font-family="Helvetica-Light,Helvetica" font-size="66.3" fill="#FEFFFE" transform="matrix(1.00, 0.00, -0.00, -1.00, 264.3, 524.1)">e</text><text xml:space="preserve" font-family="Helvetica-Light,Helvetica" font-size="66.3" fill="#FEFFFE" transform="matrix(1.00, 0.00, -0.00, -1.00, 301.2, 524.1)">e</text><text xml:space="preserve" font-family="Helvetica-Light,Helvetica" font-size="66.3" fill="#FEFFFE" transform="matrix(1.00, 0.00, -0.00, -1.00, 338.0, 524.1)">d</text><text xml:space="preserve" font-family="Helvetica-Light,Helvetica" font-size="66.3" fill="#FEFFFE" transform="matrix(1.00, 0.00, -0.00, -1.00, 378.5, 524.1)"> </text><text xml:space="preserve" font-family="Helvetica-Light,Helvetica" font-size="66.3" fill="#FEFFFE" transform="matrix(1.00, 0.00, -0.00, -1.00, 397.0, 524.1)">y</text><text xml:space="preserve" font-family="Helvetica-Light,Helvetica" font-size="66.3" fill="#FEFFFE" transform="matrix(1.00, 0.00, -0.00, -1.00, 430.1, 524.1)">o</text><text xml:space="preserve" font-family="Helvetica-Light,Helvetica" font-size="66.3" fill="#FEFFFE" transform="matrix(1.00, 0.00, -0.00, -1.00, 467.0, 524.1)">u</text><text xml:space="preserve" font-family="Helvetica-Light,Helvetica" font-size="66.3" fill="#FEFFFE" transform="matrix(1.00, 0.00, -0.00, -1.00, 503.8, 524.1)">r</text><text xml:space="preserve" font-family="Helvetica-Light,Helvetica" font-size="66.3" fill="#FEFFFE" transform="matrix(1.00, 0.00, -0.00, -1.00, 525.9, 524.1)"> </text><text xml:space="preserve" font-family="Helvetica-Light,Helvetica" font-size="66.3" fill="#FEFFFE" transform="matrix(1.00, 0.00, -0.00, -1.00, 544.4, 524.1)">h</text><text xml:space="preserve" font-family="Helvetica-Light,Helvetica" font-size="66.3" fill="#FEFFFE" transform="matrix(1.00, 0.00, -0.00, -1.00, 581.2, 524.1)">e</text><text xml:space="preserve" font-family="Helvetica-Light,Helvetica" font-size="66.3" fill="#FEFFFE" transform="matrix(1.00, 0.00, -0.00, -1.00, 618.1, 524.1)">l</text><text xml:space="preserve" font-family="Helvetica-Light,Helvetica" font-size="66.3" fill="#FEFFFE" transform="matrix(1.00, 0.00, -0.00, -1.00, 632.8, 524.1)">p</text><text xml:space="preserve" font-family="Helvetica-Light,Helvetica" font-size="66.3" fill="#FEFFFE" transform="matrix(1.00, 0.00, -0.00, -1.00, 673.3, 524.1)"> </text><text xml:space="preserve" font-family="Helvetica-Light,Helvetica" font-size="66.3" fill="#FEFFFE" transform="matrix(1.00, 0.00, -0.00, -1.00, 691.7, 524.1)">t</text><text xml:space="preserve" font-family="Helvetica-Light,Helvetica" font-size="66.3" fill="#FEFFFE" transform="matrix(1.00, 0.00, -0.00, -1.00, 710.2, 524.1)">o</text><text xml:space="preserve" font-family="Helvetica-Light,Helvetica" font-size="66.3" fill="#FEFFFE" transform="matrix(1.00, 0.00, -0.00, -1.00, 747.0, 524.1)"> </text><text xml:space="preserve" font-family="Helvetica-Light,Helvetica" font-size="66.3" fill="#FEFFFE" transform="matrix(1.00, 0.00, -0.00, -1.00, 765.5, 524.1)">m</text><text xml:space="preserve" font-family="Helvetica-Light,Helvetica" font-size="66.3" fill="#FEFFFE" transform="matrix(1.00, 0.00, -0.00, -1.00, 820.7, 524.1)">a</text><text xml:space="preserve" font-family="Helvetica-Light,Helvetica" font-size="66.3" fill="#FEFFFE" transform="matrix(1.00, 0.00, -0.00, -1.00, 857.6, 524.1)">k</text><text xml:space="preserve" font-family="Helvetica-Light,Helvetica" font-size="66.3" fill="#FEFFFE" transform="matrix(1.00, 0.00, -0.00, -1.00, 890.7, 524.1)">e</text><text xml:space="preserve" font-family="Helvetica-Light,Helvetica" font-size="66.3" fill="#FEFFFE" transform="matrix(1.00, 0.00, -0.00, -1.00, 927.6, 524.1)"> </text><text xml:space="preserve" font-family="Helvetica-Light,Helvetica" font-size="66.3" fill="#FEFFFE" transform="matrix(1.00, 0.00, -0.00, -1.00, 114.4, 445.1)">i</text><text xml:space="preserve" font-family="Helvetica-Light,Helvetica" font-size="66.3" fill="#FEFFFE" transform="matrix(1.00, 0.00, -0.00, -1.00, 129.1, 445.1)">t</text><text xml:space="preserve" font-family="Helvetica-Light,Helvetica" font-size="66.3" fill="#FEFFFE" transform="matrix(1.00, 0.00, -0.00, -1.00, 147.6, 445.1)"> </text><text xml:space="preserve" font-family="Helvetica-Light,Helvetica" font-size="66.3" fill="#FEFFFE" transform="matrix(1.00, 0.00, -0.00, -1.00, 166.0, 445.1)">t</text><text xml:space="preserve" font-family="Helvetica-Light,Helvetica" font-size="66.3" fill="#FEFFFE" transform="matrix(1.00, 0.00, -0.00, -1.00, 184.4, 445.1)">h</text><text xml:space="preserve" font-family="Helvetica-Light,Helvetica" font-size="66.3" fill="#FEFFFE" transform="matrix(1.00, 0.00, -0.00, -1.00, 221.3, 445.1)">e</text><text xml:space="preserve" font-family="Helvetica-Light,Helvetica" font-size="66.3" fill="#FEFFFE" transform="matrix(1.00, 0.00, -0.00, -1.00, 258.1, 445.1)"> </text><text xml:space="preserve" font-family="Helvetica-Light,Helvetica" font-size="66.3" fill="#FEFFFE" transform="matrix(1.00, 0.00, -0.00, -1.00, 276.6, 445.1)">b</text><text xml:space="preserve" font-family="Helvetica-Light,Helvetica" font-size="66.3" fill="#FEFFFE" transform="matrix(1.00, 0.00, -0.00, -1.00, 317.1, 445.1)">e</text><text xml:space="preserve" font-family="Helvetica-Light,Helvetica" font-size="66.3" fill="#FEFFFE" transform="matrix(1.00, 0.00, -0.00, -1.00, 353.9, 445.1)">s</text><text xml:space="preserve" font-family="Helvetica-Light,Helvetica" font-size="66.3" fill="#FEFFFE" transform="matrix(1.00, 0.00, -0.00, -1.00, 387.1, 445.1)">t</text><text xml:space="preserve" font-family="Helvetica-Light,Helvetica" font-size="66.3" fill="#FEFFFE" transform="matrix(1.00, 0.00, -0.00, -1.00, 405.5, 445.1)"> </text><text xml:space="preserve" font-family="Helvetica-Light,Helvetica" font-size="66.3" fill="#FEFFFE" transform="matrix(1.00, 0.00, -0.00, -1.00, 424.0, 445.1)">p</text><text xml:space="preserve" font-family="Helvetica-Light,Helvetica" font-size="66.3" fill="#FEFFFE" transform="matrix(1.00, 0.00, -0.00, -1.00, 464.5, 445.1)">r</text><text xml:space="preserve" font-family="Helvetica-Light,Helvetica" font-size="66.3" fill="#FEFFFE" transform="matrix(1.00, 0.00, -0.00, -1.00, 485.3, 445.1)">o</text><text xml:space="preserve" font-family="Helvetica-Light,Helvetica" font-size="66.3" fill="#FEFFFE" transform="matrix(1.00, 0.00, -0.00, -1.00, 522.2, 445.1)">j</text><text xml:space="preserve" font-family="Helvetica-Light,Helvetica" font-size="66.3" fill="#FEFFFE" transform="matrix(1.00, 0.00, -0.00, -1.00, 536.9, 445.1)">e</text><text xml:space="preserve" font-family="Helvetica-Light,Helvetica" font-size="66.3" fill="#FEFFFE" transform="matrix(1.00, 0.00, -0.00, -1.00, 573.8, 445.1)">c</text><text xml:space="preserve" font-family="Helvetica-Light,Helvetica" font-size="66.3" fill="#FEFFFE" transform="matrix(1.00, 0.00, -0.00, -1.00, 610.7, 445.1)">t</text><text xml:space="preserve" font-family="Helvetica-Light,Helvetica" font-size="66.3" fill="#FEFFFE" transform="matrix(1.00, 0.00, -0.00, -1.00, 629.1, 445.1)"> </text><text xml:space="preserve" font-family="Helvetica-Light,Helvetica" font-size="66.3" fill="#FEFFFE" transform="matrix(1.00, 0.00, -0.00, -1.00, 647.5, 445.1)">i</text><text xml:space="preserve" font-family="Helvetica-Light,Helvetica" font-size="66.3" fill="#FEFFFE" transform="matrix(1.00, 0.00, -0.00, -1.00, 662.2, 445.1)">t</text><text xml:space="preserve" font-family="Helvetica-Light,Helvetica" font-size="66.3" fill="#FEFFFE" transform="matrix(1.00, 0.00, -0.00, -1.00, 680.7, 445.1)"> </text><text xml:space="preserve" font-family="Helvetica-Light,Helvetica" font-size="66.3" fill="#FEFFFE" transform="matrix(1.00, 0.00, -0.00, -1.00, 699.1, 445.1)">c</text><text xml:space="preserve" font-family="Helvetica-Light,Helvetica" font-size="66.3" fill="#FEFFFE" transform="matrix(1.00, 0.00, -0.00, -1.00, 736.0, 445.1)">a</text><text xml:space="preserve" font-family="Helvetica-Light,Helvetica" font-size="66.3" fill="#FEFFFE" transform="matrix(1.00, 0.00, -0.00, -1.00, 772.8, 445.1)">n</text><text xml:space="preserve" font-family="Helvetica-Light,Helvetica" font-size="66.3" fill="#FEFFFE" transform="matrix(1.00, 0.00, -0.00, -1.00, 809.7, 445.1)"> </text><text xml:space="preserve" font-family="Helvetica-Light,Helvetica" font-size="66.3" fill="#FEFFFE" transform="matrix(1.00, 0.00, -0.00, -1.00, 828.1, 445.1)">b</text><text xml:space="preserve" font-family="Helvetica-Light,Helvetica" font-size="66.3" fill="#FEFFFE" transform="matrix(1.00, 0.00, -0.00, -1.00, 868.6, 445.1)">e</text><text xml:space="preserve" font-family="Helvetica-Light,Helvetica" font-size="66.3" fill="#FEFFFE" transform="matrix(1.00, 0.00, -0.00, -1.00, 905.5, 445.1)">.</text><image xlink:href="../../FB90FBA1-BE72-46B7-8D09-F3AE4E92E71C/assets/0E5B9E3E741A9A230F34A20727CF770C.png" width="303.00" height="130.00" transform="matrix(0.43, 0.00, -0.00, -0.43, 806.6, 767.0)"></image><text xml:space="preserve" font-family="Helvetica-Bold,Helvetica" font-weight="bold" font-size="37.2" fill="#FEFFFE" transform="matrix(1.00, 0.00, -0.00, -1.00, 293.9, 233.1)">S</text><text xml:space="preserve" font-family="Helvetica-Bold,Helvetica" font-weight="bold" font-size="37.2" fill="#FEFFFE" transform="matrix(1.00, 0.00, -0.00, -1.00, 318.7, 233.1)">i</text><text xml:space="preserve" font-family="Helvetica-Bold,Helvetica" font-weight="bold" font-size="37.2" fill="#FEFFFE" transform="matrix(1.00, 0.00, -0.00, -1.00, 329.1, 233.1)">g</text><text xml:space="preserve" font-family="Helvetica-Bold,Helvetica" font-weight="bold" font-size="37.2" fill="#FEFFFE" transform="matrix(1.00, 0.00, -0.00, -1.00, 351.8, 233.1)">n</text><text xml:space="preserve" font-family="Helvetica-Bold,Helvetica" font-weight="bold" font-size="37.2" fill="#FEFFFE" transform="matrix(1.00, 0.00, -0.00, -1.00, 374.5, 233.1)">-</text><text xml:space="preserve" font-family="Helvetica-Bold,Helvetica" font-weight="bold" font-size="37.2" fill="#FEFFFE" transform="matrix(1.00, 0.00, -0.00, -1.00, 386.9, 233.1)">u</text><text xml:space="preserve" font-family="Helvetica-Bold,Helvetica" font-weight="bold" font-size="37.2" fill="#FEFFFE" transform="matrix(1.00, 0.00, -0.00, -1.00, 409.6, 233.1)">p</text><text xml:space="preserve" font-family="Helvetica-Bold,Helvetica" font-weight="bold" font-size="37.2" fill="#FEFFFE" transform="matrix(1.00, 0.00, -0.00, -1.00, 432.3, 233.1)"> </text><text xml:space="preserve" font-family="Helvetica-Bold,Helvetica" font-weight="bold" font-size="37.2" fill="#FEFFFE" transform="matrix(1.00, 0.00, -0.00, -1.00, 442.7, 233.1)">f</text><text xml:space="preserve" font-family="Helvetica-Bold,Helvetica" font-weight="bold" font-size="37.2" fill="#FEFFFE" transform="matrix(1.00, 0.00, -0.00, -1.00, 455.0, 233.1)">o</text><text xml:space="preserve" font-family="Helvetica-Bold,Helvetica" font-weight="bold" font-size="37.2" fill="#FEFFFE" transform="matrix(1.00, 0.00, -0.00, -1.00, 477.8, 233.1)">r</text><text xml:space="preserve" font-family="Helvetica-Bold,Helvetica" font-weight="bold" font-size="37.2" fill="#FEFFFE" transform="matrix(1.00, 0.00, -0.00, -1.00, 492.2, 233.1)"> </text><text xml:space="preserve" font-family="Helvetica-Bold,Helvetica" font-weight="bold" font-size="37.2" fill="#FEFFFE" transform="matrix(1.00, 0.00, -0.00, -1.00, 502.6, 233.1)">u</text><text xml:space="preserve" font-family="Helvetica-Bold,Helvetica" font-weight="bold" font-size="37.2" fill="#FEFFFE" transform="matrix(1.00, 0.00, -0.00, -1.00, 525.3, 233.1)">s</text><text xml:space="preserve" font-family="Helvetica-Bold,Helvetica" font-weight="bold" font-size="37.2" fill="#FEFFFE" transform="matrix(1.00, 0.00, -0.00, -1.00, 546.0, 233.1)">e</text><text xml:space="preserve" font-family="Helvetica-Bold,Helvetica" font-weight="bold" font-size="37.2" fill="#FEFFFE" transform="matrix(1.00, 0.00, -0.00, -1.00, 566.7, 233.1)">r</text><text xml:space="preserve" font-family="Helvetica-Bold,Helvetica" font-weight="bold" font-size="37.2" fill="#FEFFFE" transform="matrix(1.00, 0.00, -0.00, -1.00, 581.2, 233.1)"> </text><text xml:space="preserve" font-family="Helvetica-Bold,Helvetica" font-weight="bold" font-size="37.2" fill="#FEFFFE" transform="matrix(1.00, 0.00, -0.00, -1.00, 591.5, 233.1)">t</text><text xml:space="preserve" font-family="Helvetica-Bold,Helvetica" font-weight="bold" font-size="37.2" fill="#FEFFFE" transform="matrix(1.00, 0.00, -0.00, -1.00, 603.9, 233.1)">e</text><text xml:space="preserve" font-family="Helvetica-Bold,Helvetica" font-weight="bold" font-size="37.2" fill="#FEFFFE" transform="matrix(1.00, 0.00, -0.00, -1.00, 624.6, 233.1)">s</text><text xml:space="preserve" font-family="Helvetica-Bold,Helvetica" font-weight="bold" font-size="37.2" fill="#FEFFFE" transform="matrix(1.00, 0.00, -0.00, -1.00, 645.3, 233.1)">t</text><text xml:space="preserve" font-family="Helvetica-Bold,Helvetica" font-weight="bold" font-size="37.2" fill="#FEFFFE" transform="matrix(1.00, 0.00, -0.00, -1.00, 657.7, 233.1)">i</text><text xml:space="preserve" font-family="Helvetica-Bold,Helvetica" font-weight="bold" font-size="37.2" fill="#FEFFFE" transform="matrix(1.00, 0.00, -0.00, -1.00, 668.0, 233.1)">n</text><text xml:space="preserve" font-family="Helvetica-Bold,Helvetica" font-weight="bold" font-size="37.2" fill="#FEFFFE" transform="matrix(1.00, 0.00, -0.00, -1.00, 690.7, 233.1)">g</text><text xml:space="preserve" font-family="Helvetica-Bold,Helvetica" font-weight="bold" font-size="37.2" fill="#FEFFFE" transform="matrix(1.00, 0.00, -0.00, -1.00, 713.4, 233.1)">!</text><image xlink:href="../../5DB84C90-4001-4CB9-8B9D-FF6FAE6B9E06/assets/4949ACF8BF5C318567A983573971AC28.png" width="400.00" height="100.00" transform="matrix(0.96, 0.00, -0.00, -0.96, 94.7, 727.3)"></image><image xlink:href="../../EB9FF825-D98D-4833-85CA-6F875B16E16A/assets/38B7A9BB7B41C2D67038A9EF72523C4C.png" width="780.00" height="233.00" transform="matrix(1.00, 0.00, -0.00, -1.00, 121.9, 363.0)" opacity="0.50"></image><path d="M 0.1 0.0 L 772.1 0.0 L 772.1 225.0 L 0.1 225.0 Z M 0.0 0.0 " fill="none" stroke="#FEFFFE" stroke-width="6.00" transform="matrix(1.00, 0.00, 0.00, -1.00, 125.9, 360.0)"></path></g></svg>